# xmcd CD database file
#
# Track frame offsets:
#	150
#	13601
#	27569
#	42307
#	57111
#	70839
#	83958
#	98374
#	111305
#	124940
#	139171
#	152036
#	166753
#	180022
#	194792
#	207674
#	221114
#	234248
#	247416
#	260214
#	274387
#	290731
#
# Disc length: 4033 seconds
#
# Revision: 0
# Processed by: cddbd v1.5.2PL0 Copyright (c) Steve Scherf et al.
# Submitted via: CDex 1.70beta2
#
DISCID=550fbf16
DTITLE=Various Artist - Great Blues Guitarists - String Dazzlers
DYEAR=2008
DGENRE=Blues
TTITLE0=LONNIE JOHNSON-EDDIE LANG - Hot Fingers
TTITLE1=LONNIE JOHNSON-EDDIE LANG - A Handfull Of Riffs
TTITLE2=TEXAS ALEXANDER - Work Ox Blues
TTITLE3=SYLVESTER WEAVER - I'm Busy And You Can't Come In
TTITLE4=BLIND WILLIE MCTELL - Georgia Rag
TTITLE5=BLIND WILLIE MCTELL - Warm It Up To Me
TTITLE6=SYLVESTER WEAVER - Untitled
TTITLE7=SYLVESTER WEAVER - WALTER BEASLEY - Untitled
TTITLE8=BLIND WILLIE JOHNSON - When The War Was On
TTITLE9=BLIND WILLIE JOHNSON - It's Nobody's Fault But Mine
TTITLE10=BIG BILL BROONZY - How You Want It Done
TTITLE11=BIG BILL BROONZY - Getting Older Every Day
TTITLE12=CASEY BILL WELDON - Guitar Swing
TTITLE13=LONNIE JOHNSON-EDDIE LANG - Bull Frog Moan
TTITLE14=BLIND LEMON JEFFERSON - Black Snake Moan
TTITLE15=JOSHUA WHITE - Little Brother Blues
TTITLE16=JOSHUA WHITE - Prodigal Son
TTITLE17=TAMPA RED - Denver Blues
TTITLE18=LONNIE JOHNSON - Away Down In The Alley Blues
TTITLE19=LONNIE JOHNSON -I Love You Mary Lou
TTITLE20=PAPA TOO SWEET - Big Fat Mama
TTITLE21=ROBERT JOHNSON - Cross Road Blues
EXTD=YEAR: 2008
EXTT0=
EXTT1=
EXTT2=
EXTT3=
EXTT4=
EXTT5=
EXTT6=
EXTT7=
EXTT8=
EXTT9=
EXTT10=
EXTT11=
EXTT12=
EXTT13=
EXTT14=
EXTT15=
EXTT16=
EXTT17=
EXTT18=
EXTT19=
EXTT20=
EXTT21=
PLAYORDER=
